<?xml version="1.0" encoding="utf-8"?>
<!-- Generator: Adobe Illustrator 16.0.0, SVG Export Plug-In . SVG Version: 6.00 Build 0)  -->
<!DOCTYPE svg PUBLIC "-//W3C//DTD SVG 1.1//EN" "http://www.w3.org/Graphics/SVG/1.1/DTD/svg11.dtd">
<svg version="1.1" id="Layer_1" xmlns="http://www.w3.org/2000/svg" xmlns:xlink="http://www.w3.org/1999/xlink" x="0px" y="0px"
	 width="316.697px" height="68.606px" viewBox="0 0 316.697 68.606" enable-background="new 0 0 316.697 68.606"
	 xml:space="preserve">
<path fill-rule="evenodd" clip-rule="evenodd" fill="#00919E" d="M75.976,24.73c5.08,0,9.728,1.84,13.318,4.888l-4.877,3.658
	c-2.39-1.678-5.301-2.663-8.44-2.663c-8.124,0-14.711,6.585-14.711,14.709c0,8.125,6.588,14.711,14.711,14.711
	c4.062,0,7.739-1.648,10.4-4.31l4.161,4.161c-3.726,3.726-8.875,6.032-14.561,6.032c-11.374,0-20.595-9.222-20.595-20.595
	C55.381,33.95,64.602,24.73,75.976,24.73"/>
<path fill-rule="evenodd" clip-rule="evenodd" fill="#00919E" d="M100.527,25.244v5.523c3.727-3.729,8.878-6.036,14.566-6.036
	c7.092,0,13.345,3.586,17.049,9.043c-1.34,1.851-2.379,3.932-3.047,6.174l-0.239,0.179c-2.1-5.559-7.469-9.512-13.764-9.512
	c-7.427,0-13.566,5.504-14.566,12.656v2.054v2.055v18.494H94.5V45.324v-20.08H100.527z"/>
<path fill-rule="evenodd" clip-rule="evenodd" fill="#00919E" d="M194.973,30.721c-8.124,0-14.71,6.586-14.71,14.71
	s6.586,14.71,14.71,14.71s14.71-6.586,14.71-14.71S203.097,30.721,194.973,30.721 M209.54,13.572v17.302
	c-3.728-3.729-8.879-6.036-14.567-6.036c-11.373,0-20.594,9.221-20.594,20.593c0,11.373,9.221,20.594,20.594,20.594
	c11.282,0,20.445-9.073,20.591-20.322l0.003,0.003v-0.274V13.572H209.54z"/>
<path fill-rule="evenodd" clip-rule="evenodd" fill="#00919E" d="M172.568,46.892c-0.058,0.513-0.116,0.988-0.183,1.438h-5.952
	h-0.803h-11.77v-5.985l0.055-0.041h12.518c-1.39-6.679-7.309-11.698-14.399-11.698c-7.093,0-13.012,5.019-14.403,11.698h0.014
	c-0.201,0.97-0.308,1.975-0.308,3.004c0,1.036,0.108,2.047,0.312,3.022h-0.018c1.335,6.412,6.844,11.292,13.558,11.673v5.889
	c-10.982-0.443-19.75-9.485-19.75-20.576c0-11.373,9.222-20.593,20.595-20.593c11.373,0,20.593,9.22,20.593,20.593
	C172.627,45.845,172.607,46.371,172.568,46.892"/>
<rect x="224.759" y="34.376" fill-rule="evenodd" clip-rule="evenodd" fill="#00919E" width="6.382" height="31.626"/>
<rect x="224.759" y="24.626" fill-rule="evenodd" clip-rule="evenodd" fill="#00919E" width="6.382" height="5.657"/>
<path fill-rule="evenodd" clip-rule="evenodd" fill="#00919E" d="M22.699,46.557c1.771,1.771,3.958,3.532,6.579,5.271
	c-0.194,0.19-0.388,0.38-0.581,0.568l0-0.001c-0.427,0.396-0.845,0.767-1.263,1.112c-0.105,0.088-0.209,0.173-0.312,0.254
	l-7.387-4.265c0.339-0.313,0.67-0.626,0.993-0.937C21.404,47.909,22.061,47.242,22.699,46.557 M24.877,65.823
	c-5.696-3.337-10.181-6.828-13.438-10.443C8.103,51.646,5.79,47.94,4.477,44.25c-1.075-3.054-1.542-6.021-1.41-8.922l0.001-0.029
	l0.001-0.022l0-0.006l0.001-0.03l0.001-0.028l0.001-0.029l0.001-0.029l0.001-0.029l0-0.014l0.001-0.016l0.001-0.029l0.001-0.029
	l0.002-0.029l0.002-0.029l0.002-0.028v-0.003l0.002-0.026l0.001-0.029l0.002-0.029l0.002-0.028l0.002-0.029l0.002-0.021v-0.008
	l0.002-0.029l0.002-0.029l0.002-0.029l0.002-0.029l0.003-0.028l0.002-0.029l0.002-0.029l0.003-0.029l0.002-0.029l0.002-0.029
	l0.002-0.029v-0.001l0.003-0.028l0.002-0.029l0.003-0.029l0.002-0.029l0.003-0.029l0.002-0.021l0.001-0.008l0.003-0.029l0.003-0.029
	l0.002-0.029l0.003-0.029l0.003-0.029l0.001-0.011l0.002-0.018l0.003-0.029l0.003-0.029l0.003-0.029l0.003-0.029l0.003-0.029
	l0-0.001l0.003-0.028l0.003-0.029l0.006-0.056v-0.002l0.004-0.029l0.002-0.02l0.001-0.009l0.004-0.029l0.003-0.029l0.004-0.029
	l0.003-0.029l0.003-0.029l0.001-0.01l0.002-0.019l0.011-0.087l0.004-0.029l0.004-0.029c0.482-3.509,1.586-6.73,3.3-9.699
	c0.625-1.082,1.325-2.167,2.125-3.245c0.812-1.094,1.657-2.121,2.555-3.116l0.032-0.038l0.008-0.009l0.025-0.029l0.016-0.018
	l0.017-0.019l0.023-0.027l0.009-0.01l0.032-0.036l0.001-0.001l0.033-0.037l0.007-0.008l0.026-0.029l0.015-0.017l0.018-0.02
	l0.023-0.026l0.01-0.011l0.031-0.035l0.002-0.002L11.575,17l0.006-0.006l0.027-0.03l0.014-0.016l0.019-0.021l0.022-0.024
	l0.011-0.013l0.03-0.033l0.003-0.003l0.033-0.036l0.005-0.006l0.028-0.03l0.013-0.015l0.021-0.022l0.021-0.023l0.012-0.013
	l0.029-0.032l0.004-0.004l0.034-0.036l0.004-0.004l0.029-0.032l0.013-0.013l0.021-0.022l0.021-0.022l0.013-0.014l0.028-0.03
	l0.005-0.005l0.034-0.036l0.003-0.003l0.03-0.033l0.011-0.012l0.022-0.024l0.019-0.02l0.015-0.015l0.028-0.029l0.006-0.007
	l0.034-0.035l0.002-0.002l0.032-0.033l0.011-0.011l0.023-0.024l0.018-0.02l0.016-0.016l0.026-0.028l0.007-0.007l0.034-0.035l0-0.001
	l0.033-0.034l0.009-0.009l0.024-0.025l0.018-0.018l0.042-0.043l0.008-0.009l0.034-0.035l0.034-0.034l0.008-0.009l0.026-0.026
	l0.017-0.017l0.018-0.018l0.025-0.025l0.009-0.01l0.033-0.033l0.001-0.001l0.034-0.035l0.007-0.007l0.027-0.027l0.016-0.016
	l0.019-0.018l0.023-0.024l0.011-0.01l0.032-0.032l0.002-0.002l0.034-0.034l0.006-0.006l0.028-0.027l0.015-0.015l0.02-0.019
	l0.023-0.023l0.011-0.011l0.031-0.031l0.003-0.003l0.034-0.034l0.005-0.005l0.029-0.029l0.056-0.055l0.012-0.012l0.03-0.029
	l0.004-0.004l0.034-0.034l0.004-0.004l0.03-0.03l0.013-0.012l0.021-0.021l0.014-0.014l0.007-0.006l0.507-0.496l0.014-0.013
	l0.013-0.012l0.014-0.013l0.003-0.002l0.024-0.023l0.013-0.012l0.006-0.005l0.007-0.007l0.013-0.012l0.022-0.021l0.003-0.003
	l0.018-0.016l0.018-0.016l0.104-0.095l0.017-0.016l0.012-0.01l0.006-0.005l0.017-0.016l0.017-0.015l0.002-0.002l0.015-0.014
	l0.017-0.015l0.011-0.01l0.006-0.006l0.018-0.016l0.017-0.015l0.001-0.001l0.016-0.014l0.017-0.015l0.01-0.008l0.007-0.007
	l0.017-0.015l0.017-0.015l0.001,0l0.016-0.015l0.017-0.015l0.009-0.008l0.008-0.008l0.004-0.004l0.029-0.025l0.001-0.001
	l0.017-0.015l0.017-0.015l0.007-0.006l0.01-0.009l0.017-0.015l0.015-0.014l0.002-0.001l0.034-0.03l0.006-0.005l0.011-0.009
	l0.017-0.015l0.014-0.013l0.003-0.002l0.017-0.015l0.017-0.015l0.005-0.004l0.012-0.01l0.017-0.015l0.013-0.011l0.003-0.003
	l0.017-0.015l0.017-0.015l0.004-0.004l0.012-0.011l0.017-0.014l0.012-0.01l0.004-0.004l0.017-0.015l0.017-0.014l0.003-0.003
	l0.013-0.011l0.017-0.015l0.033-0.028l0.017-0.014l0.002-0.002l0.014-0.012l0.017-0.014l0.01-0.008l0.007-0.006l0.017-0.014
	l0.016-0.014l0.001,0l0.016-0.013l0.017-0.014l0.009-0.007l0.008-0.006l0.016-0.014l0.017-0.014l0.01-0.008l0.012-0.01l0.013-0.01
	l0.006-0.006l0.005-0.004l0.013-0.01l0.012-0.01l0.01-0.008l0.003-0.002l0.012-0.011l0.013-0.011l0.013-0.01l0.01-0.008l0.009-0.008
	l0.01-0.008l0.009-0.007l0.002-0.002l0.007-0.005l0.009-0.008l0.01-0.008l0.009-0.008l0.005-0.004l0.004-0.003l0.009-0.008
	l0.01-0.008l0.009-0.008l0.008-0.006h0l0.007-0.006l0.023-0.018l0.008-0.006c0.375-0.305,0.742-0.581,1.106-0.833l7.3,4.215
	l3.034,1.751l0.005,0.003l-0.002,0.002l-0.019,0.017l-0.02,0.017l-0.019,0.017l-0.02,0.017l-0.007,0.007l-0.012,0.01l-0.02,0.017
	l-0.02,0.017l-0.02,0.017l-0.017,0.015l-0.003,0.003l-0.02,0.017l-0.02,0.018l-0.021,0.018l-0.054,0.047l-0.018,0.016l-0.036,0.031
	l-0.004,0.003l-0.014,0.013l-0.018,0.016l-0.036,0.031l-0.018,0.016l-0.001,0l-0.017,0.015l-0.018,0.016l-0.018,0.016l-0.018,0.016
	l-0.017,0.015l-0.001,0.001l-0.018,0.016l-0.018,0.016l-0.018,0.016l-0.018,0.016l-0.014,0.012l-0.004,0.003l-0.018,0.016
	l-0.018,0.016l-0.018,0.016l-0.005,0.004l-0.031,0.027l-0.018,0.016l-0.017,0.015l-0.018,0.016l-0.018,0.016l-0.008,0.007
	l-0.009,0.009l-0.018,0.015l-0.018,0.016l-0.018,0.016l-0.018,0.016l-0.005,0.005l-0.012,0.011l-0.018,0.016l-0.017,0.016
	l-0.018,0.016l-0.018,0.016l-0.003,0.002l-0.015,0.013l-0.018,0.016l-0.018,0.016l-0.017,0.016l-0.018,0.016l0,0l-0.017,0.015
	l-0.017,0.016l-0.018,0.016l-0.017,0.016l-0.016,0.014l-0.002,0.002l-0.018,0.016l-0.017,0.016L25.66,19.5l-0.017,0.015
	l-0.013,0.012l-0.004,0.004l-0.018,0.016l-0.017,0.016l-0.018,0.016l-0.017,0.016l-0.01,0.01l-0.007,0.006l-0.017,0.016
	l-0.018,0.016l-0.017,0.016l-0.017,0.016c-0.367,0.335-0.726,0.669-1.076,1.004l-0.021,0.02l-0.021,0.02l-0.021,0.02l-0.009,0.009
	l-0.012,0.012l-0.042,0.04l-0.021,0.02l-0.005,0.005l-0.016,0.015l-0.039,0.037l-0.024,0.023l-0.018,0.017l-0.017,0.017
	l-0.018,0.017l-0.018,0.017l-0.008,0.008l-0.009,0.009L24.059,21l-0.018,0.017l-0.018,0.017l-0.017,0.016l-0.001,0.001l-0.017,0.017
	l-0.018,0.017l-0.017,0.017l-0.025,0.024l-0.045,0.043l-0.017,0.018l-0.016,0.015l-0.002,0.002l-0.013,0.012l-0.012,0.012
	l-0.025,0.024l-0.013,0.012l-0.012,0.012l-0.001,0.001l-0.074,0.073l-0.003,0.003c-0.667,0.661-1.303,1.321-1.908,1.986
	c-0.24,0.265-0.472,0.531-0.696,0.798l0,0c-1.738,2.073-2.969,4.202-3.653,6.365l0,0.001c-0.032,0.102-0.063,0.204-0.093,0.307
	l-0.001,0.005c-0.058,0.2-0.112,0.401-0.161,0.601l-0.007,0.028c-0.022,0.092-0.043,0.184-0.063,0.276l-0.013,0.062
	c-0.019,0.087-0.037,0.175-0.054,0.263l-0.002,0.01c-0.018,0.093-0.035,0.187-0.051,0.28l-0.009,0.057
	c-0.014,0.086-0.028,0.173-0.041,0.26l-0.011,0.077l-0.026,0.202l-0.01,0.083c-0.01,0.082-0.018,0.163-0.026,0.244l-0.009,0.095
	l-0.017,0.206l-0.008,0.128l-0.01,0.175l-0.005,0.101c-0.003,0.076-0.005,0.151-0.007,0.227l-0.002,0.124l-0.001,0.152l0.001,0.189
	l0.002,0.135l0.003,0.133l0.009,0.221l0.008,0.129c0.177,2.906,1.357,5.848,3.636,8.773c-0.632,0.686-1.32,1.385-2.062,2.101
	c-0.828,0.8-1.696,1.592-2.604,2.38L14.03,50.07l2.029,1.172l10.339,5.97l0.916,0.528l0.874-0.601
	c0.477-0.327,0.933-0.676,1.382-1.048c0.442-0.366,0.91-0.781,1.408-1.243l0.026-0.026c0.171-0.166,0.342-0.333,0.515-0.503
	L24.877,65.823z"/>
<rect x="270.65" y="24.626" fill-rule="evenodd" clip-rule="evenodd" fill="#FF7600" width="9.477" height="5.657"/>
<path fill-rule="evenodd" clip-rule="evenodd" fill="#FF7600" d="M311.571,65.085c-1.922,0.737-4.713,0.936-6.759,0.972
	c-3.367,0-6.887-0.666-9.431-3.031c-2.265-2.17-3.089-5.116-3.089-8.183v-24.56h-8.092v-5.657h8.092V13.572h8.955v11.055h9.729
	v5.657h-9.729v23.529c0,6.354,5.09,7.201,10.323,5.73V65.085z"/>
<rect x="270.65" y="34.376" fill-rule="evenodd" clip-rule="evenodd" fill="#FF7600" width="9.476" height="31.418"/>
<path fill-rule="evenodd" clip-rule="evenodd" fill="#FF7600" d="M255.493,30.284v35.511h-9.736V30.284h-7.094v-5.657h7.094v-4.715
	c0-5.273,1.589-10.154,5.817-13.534c5.825-4.624,13.874-4.443,20.816-3.105c0.827,0.174,1.538,0.349,2.162,0.551v5.571
	c-1.61-0.377-3.147-0.682-4.628-0.899c-8.726-1.287-14.432,2.176-14.432,11.546v4.585h11.119v5.657h-2.814H255.493z"/>
<path fill-rule="evenodd" clip-rule="evenodd" fill="#FF7600" d="M18.854,2.43c5.696,3.336,10.181,6.828,13.438,10.443
	c3.337,3.733,5.649,7.439,6.963,11.13c1.306,3.709,1.715,7.292,1.242,10.781c-0.481,3.509-1.586,6.73-3.3,9.699
	c-0.625,1.082-1.325,2.167-2.126,3.245c-0.812,1.094-1.657,2.121-2.554,3.116c-0.859,0.994-1.782,1.903-2.68,2.777
	c-0.925,0.857-1.769,1.568-2.599,2.141l-10.34-5.97c1.875-1.631,3.561-3.246,5.044-4.882c5.935-6.54,6.802-13.666,1.32-20.707
	c0.631-0.685,1.32-1.385,2.062-2.101c0.828-0.799,1.696-1.591,2.603-2.379l1.771-1.54l-2.034-1.174l-10.339-5.969l-0.908-0.524
	l-0.869,0.597c-0.502,0.346-0.959,0.692-1.389,1.047c-0.442,0.366-0.909,0.782-1.407,1.243l-0.026,0.026l-0.514,0.502L18.854,2.43z"
	/>
</svg>
